<svg version="1.2" baseProfile="tiny-ps" xmlns="http://www.w3.org/2000/svg" viewBox="0 0 300 300" width="300" height="300">
	<title>New Project</title>
	<style>
		tspan { white-space:pre }
		.shp0 { fill: #88171a } 
	</style>
	<path id="Layer" fill-rule="evenodd" class="shp0" d="M149.97 300C-20 300 0.8 139.63 0.8 139.63C0.8 139.63 5.22 0 146.71 0C306.69 0 299.75 145.56 299.75 145.56C299.75 145.56 312.99 300 149.97 300ZM101.94 94.7C63.35 118.31 65.63 172.54 100.96 194.15C103.68 195.81 104.91 195.62 106.69 193.21C108.06 191.38 109.52 189.62 111.07 187.94C112.63 186.26 114.27 184.67 116 183.17C117.72 181.67 119.53 180.26 121.41 178.95C123.28 177.65 125.23 176.44 127.23 175.34C129.21 174.24 131.24 173.21 133.86 171.82C116.29 168.78 106.89 160.75 105.8 148.37C104.63 135.04 111.14 124.2 123.02 119.69C125.73 118.7 128.58 118.15 131.47 118.07C134.35 118 137.23 118.39 139.99 119.23C142.76 120.07 145.36 121.35 147.71 123.03C150.07 124.7 152.13 126.74 153.83 129.08C154.92 130.56 155.85 132.16 156.6 133.84C157.36 135.52 157.93 137.27 158.32 139.07C158.71 140.87 158.91 142.71 158.92 144.55C158.93 146.39 158.75 148.23 158.37 150.03C156.93 157.66 152.4 163.19 146.71 168.06C166.01 163.54 180.07 152.91 186.03 133.96C187.75 128.46 187.4 120.41 184.68 115.17C170.31 87.56 131.96 76.33 101.94 94.7ZM75.5 228.23C81.26 226.76 87.2 225.98 93.5 224.82C93.64 222.5 93.94 220.19 94.4 217.92C94.86 215.64 95.49 213.4 96.27 211.21C97.05 209.02 97.98 206.89 99.07 204.84C100.15 202.78 101.38 200.81 102.75 198.93C83.78 196.92 61.35 214.55 58.52 233.71C64.32 231.8 69.82 229.67 75.5 228.23L75.5 228.23ZM196.29 41.25C195.29 41.21 194.33 40.18 193.35 39.61C194.38 39.2 195.41 38.44 196.44 38.44C206.12 38.34 215.81 38.38 225.5 38.38C225.51 33.34 218.77 26.45 212.79 24.58L212.66 26.57C206.72 26.71 200.88 26.6 195.58 23.78C194.19 23.04 193.27 21.39 192.14 20.16C190.71 18.6 189.53 16.61 187.79 15.59C184.21 13.52 180.31 12.02 176.58 10.2C163.32 3.74 149.32 3.97 134.28 5.34L159.5 11.22L159.23 12.7C148.37 14.15 138.09 10.17 127.47 8.69C128.42 9.26 129.38 9.81 130.35 10.35C131.32 10.89 132.29 11.42 133.28 11.93C134.26 12.45 135.25 12.95 136.24 13.43C137.24 13.92 138.24 14.39 139.25 14.85C143.34 16.69 147.57 18.24 151.79 19.94C146.42 24.53 141.04 25.53 134.3 23.99C133.37 23.77 132.44 23.58 131.5 23.43C130.56 23.27 129.61 23.15 128.66 23.05C127.72 22.96 126.76 22.9 125.81 22.87C124.86 22.85 123.91 22.85 122.95 22.89C121.95 22.91 120.95 23.01 119.97 23.17C118.98 23.33 118 23.56 117.05 23.86C116.09 24.15 115.15 24.51 114.25 24.94C113.34 25.36 112.46 25.85 111.62 26.39C115.4 28.31 118.88 29.9 122.17 31.82C123.52 32.62 125.08 33.97 125.46 35.36C125.65 36.21 125.82 37.06 125.99 37.91C126.15 38.76 126.31 39.62 126.45 40.48C126.59 41.33 126.72 42.19 126.83 43.05C126.95 43.91 127.05 44.78 127.14 45.64C120.95 46.34 110.07 52.64 107.87 56.73C117.38 58.56 127.74 56.35 136.81 62.48C133.83 64.74 126.87 67.55 124.31 69.49C127.47 70.31 134.78 69.91 137.64 69.71C140.05 69.55 141.16 69.49 142.15 70.3L170.15 92.22C173.1 94.6 184.99 105.85 188.09 112.93C188.53 113.9 188.92 114.9 189.27 115.91C189.62 116.92 189.91 117.95 190.16 118.99C190.41 120.03 190.61 121.08 190.76 122.13C190.91 123.19 191.01 124.26 191.06 125.33C191.06 126.56 191 127.79 190.89 129.02C190.77 130.25 190.6 131.48 190.37 132.69C190.15 133.9 189.86 135.1 189.52 136.29C189.18 137.48 188.78 138.65 188.33 139.8C187.37 142.26 184.52 147.71 178.66 154.06C169.57 163.91 157.87 169.23 145.09 171.87C115.36 178 90.65 209.75 97.63 244.75C105.77 285.62 150.87 307.74 187.73 288.3C211.56 275.74 224.19 251.23 220.8 224.54C218.76 208.42 211.47 195.27 199.24 184.7C197.64 183.32 196.63 183.32 194.75 184.52C193.16 185.54 191.56 186.54 189.96 187.53C188.35 188.52 186.73 189.5 185.11 190.46C183.49 191.42 181.85 192.37 180.21 193.31C178.58 194.25 176.93 195.17 175.27 196.08C171.48 198.17 167.38 199.68 162.62 201.81C164.25 202.23 165.04 202.43 165.82 202.63C183.6 207.36 193.09 222.97 188.89 240.45C185.15 255.99 169.37 265.93 154.08 263.31C141.33 261.12 130.2 250.54 128.34 237.85C126.32 224.03 133.2 210.73 145.45 205.16C152.24 202.07 159.22 199.38 166 196.26C173.7 192.71 182.04 189.91 188.76 184.97C205.46 172.7 215.78 155.82 219.8 135.44C222.2 123.24 222.04 111.08 216.46 99.49C212.17 90.6 205.14 84.14 197.58 78.24C189.81 72.17 181.58 66.69 173.84 60.58C171.74 58.92 170.33 56.07 169.36 53.49C168.95 52.39 170.28 49.42 171.18 49.26C172.37 49.05 173.56 48.87 174.76 48.7C175.96 48.54 177.16 48.39 178.36 48.27C179.57 48.15 180.77 48.05 181.98 47.97C183.18 47.89 184.39 47.83 185.6 47.79C191.18 47.58 196.77 47.76 202.35 47.83C203.56 47.84 205.2 47.69 205.9 48.37C208.79 51.21 211.06 49.39 213.06 47.52C213.45 47.09 213.83 46.66 214.21 46.23C214.58 45.79 214.94 45.34 215.3 44.89C215.65 44.43 215.99 43.97 216.33 43.51C216.66 43.04 216.98 42.56 217.3 42.08C215.92 41.79 214.53 41.59 213.13 41.5C207.52 41.37 201.9 41.45 196.29 41.25L196.29 41.25ZM183.78 26.91C184.85 26.09 185.94 25.41 187.26 26.5C188.01 27.12 188.74 27.75 189.64 28.53C188.52 29.13 187.6 29.63 186.67 30.1C186.41 30.25 186.13 30.34 185.84 30.38C185.54 30.42 185.25 30.4 184.96 30.33C184.67 30.25 184.41 30.12 184.17 29.94C183.94 29.76 183.74 29.53 183.6 29.28C183.42 29.12 183.29 28.93 183.2 28.72C183.11 28.5 183.08 28.27 183.09 28.04C183.11 27.81 183.19 27.59 183.3 27.39C183.42 27.2 183.59 27.03 183.78 26.91Z" />
</svg>